#!OML:ASF E:\motion texture\Top Level 1\Subject 1\Session 1\male.ASF
:FULLY-SPECIFIED
:DEGREES
549
root -26.2808 17.9727 1.1345 176.374 -64.3297 -164.663
lowerback -1.65325 -4.40066 7.20846
upperback -1.0549 -6.34252 7.21231
thorax -0.103304 -3.33895 3.35285
lowerneck -18.8997 -2.42444 -5.25982
upperneck 9.5037 -2.47287 3.78378
head 6.05592 -1.09284 1.79911
rclavicle 6.61953e-014 1.38354e-013
rhumerus -10.6383 21.7327 -66.8717
rradius 110.656
rwrist 32.4919
rhand -43.2372 -20.2961
rfingers 7.12502
rthumb -16.0868 -409.648
lclavicle 6.61953e-014 1.38354e-013
lhumerus 4.34754 -47.3797 97.5735
lradius 88.2356
lwrist 44.7458
lhand -5.18184 43.0143
lfingers 7.12502
lthumb 20.6187 71.9392
rfemur -9.03674 10.6917 27.1241
rtibia 23.4211
rfoot -14.7415 -2.6691
rtoes 6.33743
lfemur -32.4668 5.58246 -7.90492
ltibia 20.705
lfoot -7.44116 11.9773
ltoes -13.9919
550
root -26.4426 17.9568 1.1223 176.4 -64.1413 -164.671
lowerback -1.69438 -4.4246 7.25771
upperback -1.0898 -6.37933 7.22174
thorax -0.120341 -3.35919 3.33411
lowerneck -18.8566 -2.31154 -5.13312
upperneck 9.60317 -2.34193 3.68252
head 6.072 -1.03307 1.76057
rclavicle 5.08889e-014 3.97569e-014
rhumerus -10.6714 21.0862 -65.8962
rradius 111.602
rwrist 32.1412
rhand -42.9805 -19.6979
rfingers 7.12502
rthumb -15.8396 -409.07
lclavicle 5.08889e-014 3.97569e-014
lhumerus 4.26315 -47.0316 97.09
lradius 88.8458
lwrist 44.1457
lhand -4.8274 42.6206
lfingers 7.12502
lthumb 20.9592 71.5082
rfemur -8.75187 10.7866 27.0091
rtibia 23.8681
rfoot -14.9024 -2.52081
rtoes 5.41109
lfemur -32.4586 5.43885 -7.66795
ltibia 19.6807
lfoot -7.24162 12.3787
ltoes -13.8305
551
root -26.6067 17.9413 1.10983 176.423 -63.9693 -164.688
lowerback -1.73749 -4.45214 7.30408
upperback -1.12807 -6.42052 7.22829
thorax -0.13985 -3.38157 3.31392
lowerneck -18.8138 -2.20048 -5.00209
upperneck 9.71502 -2.21352 3.5747
head 6.09237 -0.974878 1.71894
rclavicle 3.69739e-014 2.54444e-014
rhumerus -10.7084 20.3023 -64.907
rradius 112.564
rwrist 31.7463
rhand -42.744 -19.1784
rfingers 7.12502
rthumb -15.6118 -408.568
lclavicle 3.69739e-014 2.54444e-014
lhumerus 4.13186 -46.596 96.6117
lradius 89.4638
lwrist 43.524
lhand -4.51047 42.2176
lfingers 7.12502
lthumb 21.2637 71.0712
rfemur -8.47531 10.867 26.8801
rtibia 24.3521
rfoot -15.0236 -2.35462
rtoes 4.47567
lfemur -32.4322 5.29428 -7.45892
ltibia 18.7443
lfoot -7.03779 12.7635
ltoes -13.6126
552
root -26.7729 17.926 1.09704 176.441 -63.8153 -164.713
lowerback -1.78224 -4.48295 7.34912
upperback -1.17069 -6.46546 7.23122
thorax -0.163312 -3.4058 3.29081
lowerneck -18.7698 -2.09262 -4.8678
upperneck 9.83901 -2.08949 3.46205
head 6.11688 -0.919093 1.67476
rclavicle -1.15295e-014 -3.02153e-014
rhumerus -10.7622 19.3727 -63.9102
rradius 113.535
rwrist 31.285
rhand -42.5189 -18.7292
rfingers 7.12502
rthumb -15.395 -408.136
lclavicle -1.15295e-014 -3.02153e-014
lhumerus 3.94371 -46.0785 96.1431
lradius 90.0892
lwrist 42.8724
lhand -4.23565 41.8193
lfingers 7.12502
lthumb 21.5277 70.6429
rfemur -8.21053 10.9347 26.7379
rtibia 24.8749
rfoot -15.0966 -2.17233
rtoes 3.53772
lfemur -32.3922 5.15375 -7.28206
ltibia 17.9037
lfoot -6.82788 13.1185
ltoes -13.3311
553
root -26.9412 17.9111 1.08385 176.456 -63.6805 -164.748
lowerback -1.82805 -4.51787 7.39101
upperback -1.21645 -6.51533 7.23133
thorax -0.189515 -3.43246 3.26652
lowerneck -18.729 -1.988 -4.73416
upperneck 9.97544 -1.9692 3.34793
head 6.14635 -0.865266 1.6298
rclavicle 5.42682e-014 -1.74931e-014
rhumerus -10.8416 18.2957 -62.9095
rradius 114.508
rwrist 30.7477
rhand -42.3447 -18.3834
rfingers 7.12502
rthumb -15.2272 -407.803
lclavicle 5.42682e-014 -1.74931e-014
lhumerus 3.69466 -45.4776 95.6868
lradius 90.7166
lwrist 42.1634
lhand -3.99799 41.4321
lfingers 7.12502
lthumb 21.7559 70.2294
rfemur -7.95955 10.9912 26.5823
rtibia 25.4398
rfoot -15.1169 -1.97536
rtoes 2.61029
lfemur -32.3403 5.02036 -7.14157
ltibia 17.1621
lfoot -6.60916 13.43
ltoes -12.9773
554
root -27.1116 17.8968 1.07028 176.467 -63.5646 -164.795
lowerback -1.87137 -4.55518 7.42878
upperback -1.2649 -6.56735 7.22784
thorax -0.21999 -3.46014 3.24115
lowerneck -18.6917 -1.88922 -4.59908
upperneck 10.1234 -1.85638 3.23044
head 6.18067 -0.815285 1.58272
rclavicle -1.59028e-015 -4.77083e-014
rhumerus -10.9575 17.0572 -61.9083
rradius 115.479
rwrist 30.0896
rhand -42.1897 -18.0866
rfingers 7.12502
rthumb -15.0779 -407.517
lclavicle -1.59028e-015 -4.77083e-014
lhumerus 3.38057 -44.7948 95.2454
lradius 91.3407
lwrist 41.3806
lhand -3.77188 41.0655
lfingers 7.12502
lthumb 21.973 69.8375
rfemur -7.72346 11.0359 26.413
rtibia 26.049
rfoot -15.0771 -1.76217
rtoes 1.71176
lfemur -32.2744 4.89288 -7.03954
ltibia 16.5197
lfoot -6.38725 13.7015
ltoes -12.5612
555
root -27.284 17.8829 1.05628 176.477 -63.4695 -164.853
lowerback -1.91404 -4.59566 7.4619
upperback -1.31487 -6.6229 7.22128
thorax -0.252354 -3.48947 3.21523
lowerneck -18.6636 -1.79634 -4.46216
upperneck 10.2847 -1.75052 3.1064
head 6.22127 -0.769147 1.53246
rclavicle -2.78299e-014 1.35174e-013
rhumerus -11.1182 15.65 -60.906
rradius 116.443
rwrist 29.3013
rhand -42.0637 -17.8287
rfingers 7.12502
rthumb -14.9565 -407.269
lclavicle -2.78299e-014 1.35174e-013
lhumerus 2.99838 -44.0271 94.8205
lradius 91.9583
lwrist 40.5227
lhand -3.57278 40.7111
lfingers 7.12502
lthumb 22.1642 69.4605
rfemur -7.50475 11.0691 26.23
rtibia 26.7036
rfoot -14.9689 -1.53867
rtoes 0.839897
lfemur -32.1981 4.77881 -6.98245
ltibia 15.9804
lfoot -6.16265 13.9214
ltoes -12.1026
556
root -27.4583 17.8696 1.04181 176.484 -63.3953 -164.924
lowerback -1.95344 -4.63862 7.48955
upperback -1.36545 -6.68076 7.21139
thorax -0.287096 -3.51984 3.18917
lowerneck -18.6424 -1.71014 -4.32845
upperneck 10.4534 -1.65259 2.98349
head 6.26602 -0.726906 1.48223
rclavicle 2.56432e-014 4.45278e-014
rhumerus -11.333 14.0649 -59.9005
rradius 117.394
rwrist 28.3754
rhand -41.9661 -17.6136
rfingers 7.12502
rthumb -14.8625 -407.06
lclavicle 2.56432e-014 4.45278e-014
lhumerus 2.5474 -43.1766 94.4085
lradius 92.5687
lwrist 39.5971
lhand -3.4014 40.3736
lfingers 7.12502
lthumb 22.3287 69.1034
rfemur -7.30605 11.0938 26.0348
rtibia 27.4061
rfoot -14.7865 -1.30756
rtoes 0.00614891
lfemur -32.1114 4.67951 -6.97068
ltibia 15.5441
lfoot -5.93721 14.0854
ltoes -11.6003
557
root -27.6346 17.8569 1.02684 176.49 -63.3438 -165.011
lowerback -1.99108 -4.68391 7.51085
upperback -1.41511 -6.74098 7.19741
thorax -0.321744 -3.55114 3.1624
lowerneck -18.6271 -1.63149 -4.20003
upperneck 10.6269 -1.5634 2.86244
head 6.31395 -0.688994 1.4325
rclavicle 1.96797e-014 2.06736e-014
rhumerus -11.6097 12.2956 -58.8864
rradius 118.32
rwrist 27.3083
rhand -41.898 -17.4623
rfingers 7.12502
rthumb -14.7969 -406.914
lclavicle 1.96797e-014 2.06736e-014
lhumerus 2.02567 -42.2429 94.0104
lradius 93.1714
lwrist 38.6188
lhand -3.26359 40.0624
lfingers 7.12502
lthumb 22.461 68.7763
rfemur -7.12672 11.1088 25.826
rtibia 28.1562
rfoot -14.5228 -1.07231
rtoes -0.780406
lfemur -32.012 4.59381 -7.00851
ltibia 15.2073
lfoot -5.70936 14.1878
ltoes -11.0687
558
root -27.8125 17.8449 1.01136 176.5 -63.3151 -165.116
lowerback -2.02488 -4.732 7.52314
upperback -1.46411 -6.80385 7.17987
thorax -0.357387 -3.58353 3.13712
lowerneck -18.6182 -1.56009 -4.0767
upperneck 10.8038 -1.4824 2.74205
head 6.36467 -0.655248 1.3829
rclavicle 4.11484e-014 -5.40694e-014
rhumerus -11.9534 10.34 -57.8577
rradius 119.211
rwrist 26.0888
rhand -41.8627 -17.3838
rfingers 7.12502
rthumb -14.7629 -406.838
lclavicle 4.11484e-014 -5.40694e-014
lhumerus 1.43394 -41.2251 93.6226
lradius 93.7629
lwrist 37.5973
lhand -3.16267 39.7814
lfingers 7.12502
lthumb 22.5578 68.4835
rfemur -6.97102 11.1156 25.6038
rtibia 28.9555
rfoot -14.1729 -0.845788
rtoes -1.52545
lfemur -31.903 4.52359 -7.09712
ltibia 14.9711
lfoot -5.47792 14.2243
ltoes -10.5096
559
root -27.992 17.8335 0.995344 176.514 -63.3097 -165.241
lowerback -2.05652 -4.78256 7.52709
upperback -1.51078 -6.86916 7.1572
thorax -0.39159 -3.61678 3.11108
lowerneck -18.6173 -1.49596 -3.95659
upperneck 10.9835 -1.41 2.6221
head 6.41813 -0.625806 1.33301
rclavicle 1.41137e-014 -5.56597e-014
rhumerus -12.3719 8.19462 -56.8055
rradius 120.056
rwrist 24.7119
rhand -41.8612 -17.397
rfingers 7.12502
rthumb -14.7615 -406.851
lclavicle 1.41137e-014 -5.56597e-014
lhumerus 0.774478 -40.1241 93.24
lradius 94.3389
lwrist 36.5402
lhand -3.10334 39.5311
lfingers 7.12502
lthumb 22.6148 68.2263
rfemur -6.83953 11.1138 25.3683
rtibia 29.8044
rfoot -13.7424 -0.632442
rtoes -2.22925
lfemur -31.7818 4.46543 -7.23663
ltibia 14.8301
lfoot -5.24684 14.1959
ltoes -9.91537
560
root -28.1731 17.8229 0.978805 176.532 -63.3287 -165.386
lowerback -2.08421 -4.83613 7.52149
upperback -1.55528 -6.93741 7.12996
thorax -0.4253 -3.65116 3.08567
lowerneck -18.6229 -1.43932 -3.84144
upperneck 11.1634 -1.34608 2.50227
head 6.47332 -0.600721 1.28301
rclavicle -2.0276e-014 7.79236e-014
rhumerus -12.8675 5.8602 -55.7177
rradius 120.836
rwrist 23.1671
rhand -41.8978 -17.5083
rfingers 7.12502
rthumb -14.7967 -406.96
lclavicle -2.0276e-014 7.79236e-014
lhumerus 0.04806 -38.9374 92.8628
lradius 94.8937
lwrist 35.4477
lhand -3.08825 39.3098
lfingers 7.12502
lthumb 22.6293 68.0032
rfemur -6.73503 11.1032 25.12
rtibia 30.7043
rfoot -13.2346 -0.431755
rtoes -2.87262
lfemur -31.6491 4.41632 -7.42591
ltibia 14.7818
lfoot -5.01163 14.1041
ltoes -9.29431
561
root -28.3554 17.813 0.961715 176.558 -63.3736 -165.553
lowerback -2.10906 -4.89267 7.50517
upperback -1.59807 -7.00861 7.09821
thorax -0.458223 -3.68664 3.06152
lowerneck -18.6343 -1.39048 -3.73217
upperneck 11.343 -1.29098 2.38338
head 6.52988 -0.580135 1.23326
rclavicle 4.65156e-014 -5.725e-014
rhumerus -13.4476 3.33879 -54.5776
rradius 121.538
rwrist 21.4472
rhand -41.9701 -17.75
rfingers 7.12502
rthumb -14.8663 -407.197
lclavicle 4.65156e-014 -5.725e-014
lhumerus -0.741243 -37.667 92.484
lradius 95.4221
lwrist 34.3258
lhand -3.11314 39.1199
lfingers 7.12502
lthumb 22.6054 67.8163
rfemur -6.66091 11.0826 24.8589
rtibia 31.6561
rfoot -12.6512 -0.248299
rtoes -3.45492
lfemur -31.5058 4.37286 -7.66377
ltibia 14.8214
lfoot -4.77481 13.9479
ltoes -8.65892
562
root -28.5388 17.8039 0.944108 176.591 -63.4454 -165.74
lowerback -2.12968 -4.95228 7.4793
upperback -1.6391 -7.08271 7.06164
thorax -0.491251 -3.72323 3.03782
lowerneck -18.6512 -1.34934 -3.62814
upperneck 11.5216 -1.2447 2.26531
head 6.58756 -0.564041 1.18361
rclavicle -1.76918e-014 -4.92986e-014
rhumerus -14.1199 0.636905 -53.3672
rradius 122.144
rwrist 19.5458
rhand -42.0795 -18.1489
rfingers 7.12502
rthumb -14.9717 -407.588
lclavicle -1.76918e-014 -4.92986e-014
lhumerus -1.59036 -36.3144 92.0981
lradius 95.9184
lwrist 33.1804
lhand -3.17715 38.9602
lfingers 7.12502
lthumb 22.5439 67.664
rfemur -6.61987 11.0505 24.5867
rtibia 32.6596
rfoot -11.9933 -0.0886618
rtoes -3.96135
lfemur -31.3513 4.32883 -7.94602
ltibia 14.9436
lfoot -4.53986 13.7321
ltoes -8.00837
563
root -28.7231 17.7957 0.925959 176.628 -63.5443 -165.942
lowerback -2.14759 -5.01503 7.4444
upperback -1.67756 -7.16023 7.02125
thorax -0.522565 -3.76117 3.0151
lowerneck -18.6722 -1.31607 -3.53158
upperneck 11.697 -1.20712 2.14892
head 6.64537 -0.552396 1.13471
rclavicle 4.55217e-014 -1.27222e-014
rhumerus -14.8911 -2.23397 -52.0664
rradius 122.635
rwrist 17.4539
rhand -42.2228 -18.7239
rfingers 7.12502
rthumb -15.1098 -408.152
lclavicle 4.55217e-014 -1.27222e-014
lhumerus -2.49362 -34.8795 91.6995
lradius 96.3763
lwrist 32.0195
lhand -3.2904 38.8259
lfingers 7.12502
lthumb 22.4352 67.5429
rfemur -6.61418 11.0065 24.3064
rtibia 33.7139
rfoot -11.2629 0.0416453
rtoes -4.38907
lfemur -31.1849 4.28046 -8.26705
ltibia 15.1424
lfoot -4.3109 13.4608
ltoes -7.34482
